<?xml version="1.0" encoding="UTF-8"?>
<svg width="3608px" height="929px" viewBox="0 0 3608 929" version="1.1" xmlns="http://www.w3.org/2000/svg" xmlns:xlink="http://www.w3.org/1999/xlink">
    <title>syndio-logo-dark (1)</title>
    <g id="Page-1" stroke="none" stroke-width="1" fill="none" fill-rule="evenodd">
        <g id="syndio-logo-dark-(1)" fill="#FFFFFF" fill-rule="nonzero">
            <path d="M126.8,12.8 C164.3,15.4 199.9,36.3 220.3,71.7 C220.4,71.8 220.3,71.9 220.3,72 C222.3,75.5 224.2,79.1 225.8,82.7 C227.5,86.3 229,89.9 230.2,93.7 C230.2,93.8 230.2,93.9 230.2,94 C231.4,97.7 232.4,101.4 233.2,105.2 C234,109 234.6,112.6 235.1,116.4 C235.6,120.3 236.1,124.1 236.2,127.9 C236.3,131.8 236.2,135.8 235.9,139.5 C235.7,143.2 235.2,147 234.6,150.7 C232.9,160.3 237.4,169.9 245.8,174.9 L583.3,372.3 C591.9,377.3 602.6,376.4 610.2,370.1 C613.1,367.7 616.1,365.4 619.3,363.2 C625.6,358.9 632.3,355.2 639.3,352.2 C646.3,349.1 653.6,346.9 661.2,345.4 C668.8,343.8 676.7,342.9 684.8,342.9 C749.9,342.9 802.5,395.7 802.5,461.6 C802.5,527.5 749.9,580 684.8,580 C676.7,580 668.9,579.1 661.2,577.5 C653.6,575.9 646.3,573.6 639.3,570.6 C632.3,567.7 625.5,563.9 619.3,559.6 C616.2,557.5 613.1,555.5 610.2,553.1 C602.7,546.7 591.9,545.7 583.3,550.6 L245.8,748.6 C237.4,753.5 233,763.1 234.6,772.7 C235.2,776.5 235.7,780.2 235.9,784 C236.2,787.8 236.3,791.7 236.2,795.5 C236.1,799.4 235.8,803.1 235.4,806.7 C235.3,806.8 235.2,806.9 235.1,807 C234.7,810.7 234.1,814.4 233.2,818.2 C232.4,822 231.4,826 230.2,829.7 C229,833.4 227.5,836.9 225.8,840.6 C224.1,844.3 222.3,847.8 220.3,851.3 C187.7,908.2 116.3,927.7 59.9,894.9 C3.5,862.3 -15.8,790 16.9,733 C18.9,729.5 21.1,725.9 23.5,722.7 C25.8,719.4 28.3,716.6 30.9,713.6 C33.5,710.7 36.3,707.7 39.1,705.1 C41.9,702.5 44.8,700 47.9,697.7 C51,695.5 54,693.2 57.3,691.2 C60.5,689.2 63.8,687.4 67.2,685.7 C67.3,685.7 67.4,685.7 67.5,685.7 C70.8,684 74.1,682.6 77.7,681.4 C86.9,677.9 93,669.3 93,659.4 L93,264.2 C93,254.4 86.8,245.7 77.7,242.3 C74.2,241 70.9,239.5 67.5,237.9 C67.4,237.8 67.3,237.7 67.2,237.7 C63.8,236 60.6,234.4 57.3,232.5 C57.3,232.4 57.3,232.3 57.3,232.2 C54.1,230.2 51,228.2 47.9,225.9 C44.9,223.6 42,221.1 39.1,218.5 C36.2,215.9 33.5,212.9 30.9,210 C28.3,207.1 25.8,204.2 23.5,200.9 C21.2,197.6 18.9,194 16.9,190.5 C-15.8,133.5 3.5,61.2 59.9,28.4 C81.1,16.1 104.3,11.2 126.8,12.8 L126.8,12.8 Z M205.2,218.4 C200.5,218.8 196,220.7 192.3,223.6 C190.8,224.9 189.2,226 187.6,227.2 C187.5,227.2 187.4,227.2 187.4,227.2 C184.2,229.6 181.1,231.7 177.5,233.7 C177.4,233.7 177.3,233.7 177.2,233.7 C173.8,235.8 170.3,237.6 166.7,239.2 C166.6,239.2 166.5,239.4 166.4,239.5 C164.7,240.3 162.7,241 160.9,241.7 C151.9,245.2 146,254 146.098748,263.6 L146.098748,659.8 C146,669.5 151.9,678.2 160.9,681.7 C162.7,682.4 164.6,683.1 166.4,683.9 C170,685.6 173.6,687.5 177.1,689.7 C180.7,691.8 184,693.9 187.3,696.2 C188.9,697.4 190.4,698.5 192,699.8 C199.6,705.9 210.2,706.6 218.6,701.7 L557.5,505.1 C566.1,500.2 570.7,490.5 569.1,480.7 C569,480.2 568.9,479.6 568.8,479.1 C568.8,478.9 568.8,478.9 568.8,478.8 C568.8,478.7 568.6,478.4 568.6,478.5 C568.6,478.1 568.6,477.8 568.6,477.4 C568.3,475 568.3,474.2 568.3,474.9 C568.2,474.2 568.1,473.6 568,473 C567.9,472 567.9,470.2 567.7,467.8 C567.7,467.7 567.7,467.6 567.7,467.5 C567.6,465.3 567.4,463.2 567.4,461.5 C567.4,459.8 567.6,457.6 567.7,455.2 C567.8,453.4 568,451.4 568.3,449.2 L568,449.2 C568.3,447.1 568.7,445.3 568.8,444 C568.8,443.8 568.8,443.3 568.8,443.2 C568.9,442.9 569.1,442.6 569.1,442.4 C571,432.6 566.5,422.8 557.9,417.7 L218.7,221.7 C214.6,219.3 209.9,218.1 205.2,218.4 L205.2,218.4 Z" id="path6393_5_"></path>
            <g id="Group" transform="translate(954.000000, 0.000000)">
                <path d="M22.5,618 C48.4,634.9 94.3,652.9 138.1,652.9 C201.9,652.9 231.8,621 231.8,581.1 C231.8,539.2 206.9,516.3 142.1,492.4 C55.4,461.5 14.5,413.7 14.5,355.8 C14.5,278.1 77.3,214.3 181,214.3 C229.8,214.3 272.7,228.3 299.6,244.2 L277.7,308 C258.8,296 223.9,280.1 179,280.1 C127.2,280.1 98.3,310 98.3,345.9 C98.3,385.8 127.2,403.7 190,427.6 C273.7,459.5 316.6,501.4 316.6,573.1 C316.6,657.8 250.8,717.6 136.2,717.6 C83.4,717.6 34.5,704.6 0.6,684.7 L22.5,618 Z" id="Path"></path>
                <path d="M461.1,225.3 L566.8,510.4 C577.8,542.3 589.7,580.2 597.7,609.1 L599.7,609.1 C608.7,580.2 618.6,543.3 630.6,508.4 L726.3,225.3 L819,225.3 L687.4,569.2 C624.6,734.7 581.7,819.4 521.9,871.2 C479,909.1 436.2,924 414.2,928 L392.3,854.2 C414.2,847.2 443.1,833.3 469.1,811.3 C493,792.4 522.9,758.5 542.9,713.6 C546.9,704.6 549.9,697.7 549.9,692.7 C549.9,687.7 547.9,680.7 543.9,669.8 L365.5,225.2 L461.1,225.2 L461.1,225.3 Z" id="Path"></path>
                <path d="M898.7,355.8 C898.7,306 897.7,265.1 894.7,225.2 L972.4,225.2 L977.4,304.9 L979.4,304.9 C1003.3,259 1059.1,214.2 1138.9,214.2 C1205.7,214.2 1309.3,254.1 1309.3,419.5 L1309.3,707.6 L1221.6,707.6 L1221.6,429.6 C1221.6,351.9 1192.7,287.1 1110,287.1 C1052.2,287.1 1007.3,328 992.4,376.8 C988.4,387.8 986.4,402.7 986.4,417.7 L986.4,707.8 L898.7,707.8 L898.7,355.8 L898.7,355.8 Z" id="Path"></path>
                <path d="M1858.6,0 L1858.6,583.1 C1858.6,626 1859.6,674.8 1862.6,707.7 L1783.9,707.7 L1779.9,624 L1777.9,624 C1751,677.8 1692.2,718.7 1613.4,718.7 C1496.8,718.7 1407.1,620 1407.1,473.5 C1406.1,313 1505.8,214.3 1623.4,214.3 C1697.2,214.3 1747,249.2 1768.9,288.1 L1770.9,288.1 L1770.9,0 L1858.6,0 Z M1770.9,421.6 C1770.9,410.6 1769.9,395.7 1766.9,384.7 C1753.9,328.9 1706.1,283 1640.3,283 C1549.6,283 1495.8,362.7 1495.8,469.4 C1495.8,567.1 1543.6,647.8 1638.3,647.8 C1697.1,647.8 1750.9,608.9 1766.9,543.1 C1769.9,531.1 1770.9,519.2 1770.9,505.2 L1770.9,421.6 Z" id="Shape"></path>
                <path d="M2091.8,89.7 C2092.8,119.6 2070.9,143.5 2036,143.5 C2005.1,143.5 1983.2,119.6 1983.2,89.7 C1983.2,58.8 2006.1,34.9 2038,34.9 C2070.9,34.9 2091.8,58.8 2091.8,89.7 Z M1994.1,707.7 L1994.1,225.3 L2081.8,225.3 L2081.8,707.7 L1994.1,707.7 Z" id="Shape"></path>
                <path d="M2654,462.5 C2654,640.9 2530.4,718.7 2413.8,718.7 C2283.2,718.7 2182.5,623 2182.5,470.5 C2182.5,309 2288.2,214.3 2421.7,214.3 C2560.3,214.3 2654,315 2654,462.5 Z M2271.2,467.5 C2271.2,573.2 2332,652.9 2417.7,652.9 C2501.4,652.9 2564.2,574.2 2564.2,465.5 C2564.2,383.8 2523.3,280.1 2419.7,280.1 C2316.1,280.1 2271.2,375.8 2271.2,467.5 Z" id="Shape"></path>
            </g>
        </g>
    </g>
</svg>